<?xml version="1.0" standalone="no"?>
<!DOCTYPE svg PUBLIC "-//W3C//DTD SVG 20010904//EN"
 "http://www.w3.org/TR/2001/REC-SVG-20010904/DTD/svg10.dtd">
<svg version="1.0" xmlns="http://www.w3.org/2000/svg"
 width="199.000000pt" height="139.000000pt" viewBox="0 0 199.000000 139.000000"
 preserveAspectRatio="xMidYMid meet">

<g transform="translate(0.000000,139.000000) scale(0.100000,-0.100000)"
fill="#000000" stroke="none">
<path d="M40 1335 c0 -7 719 -1228 730 -1238 4 -5 33 34 64 86 l57 95 -167
283 c-92 156 -203 345 -246 419 -44 74 -109 186 -145 248 l-66 112 -113 0
c-63 0 -114 -2 -114 -5z"/>
<path d="M490 1333 c1 -5 22 -44 49 -88 l48 -80 291 -3 c161 -1 292 -5 292 -9
0 -3 -17 -35 -37 -70 l-37 -63 -212 0 -212 0 276 -469 276 -469 59 98 58 98
-164 278 -164 279 105 5 106 5 143 240 c78 132 142 243 142 248 1 4 -228 7
-509 7 -280 0 -510 -3 -510 -7z"/>
<path d="M1532 997 c-111 -189 -202 -347 -202 -351 0 -4 25 -51 56 -103 l55
-94 260 441 c142 242 259 443 259 445 0 3 -51 5 -113 5 l-114 0 -201 -343z"/>
</g>
</svg>
